<?xml version="1.0" encoding="iso-8859-1"?>
<!-- 아이콘 제작자 <a href="https://www.flaticon.com/kr/authors/smashicons" title="Smashicons">Smashicons</a> from <a href="https://www.flaticon.com/kr/" title="Flaticon"> www.flaticon.com</a> -->
<!-- Generator: Adobe Illustrator 19.0.0, SVG Export Plug-In . SVG Version: 6.00 Build 0)  -->
<svg version="1.1" id="Capa_1" xmlns="http://www.w3.org/2000/svg" xmlns:xlink="http://www.w3.org/1999/xlink" x="0px" y="0px"
	 viewBox="0 0 512 512" style="enable-background:new 0 0 512 512;" xml:space="preserve">
<g>
	<g transform="translate(1 1)">
		<polygon style="fill:#795548;" points="212.453,345.394 152.643,357.357 164.606,297.547 186.733,289.133 220.867,323.267 		"/>
		
			<rect x="274.359" y="180.499" transform="matrix(0.7071 0.7071 -0.7071 0.7071 233.0153 -158.798)" style="fill:#F5F5F5;" width="67.67" height="42.752"/>
		<path style="fill:#FDD834;" d="M178.2,7.533h153.6c4.713,0,8.533,3.821,8.533,8.533V101.4c0,4.713-3.82,8.533-8.533,8.533H178.2
			c-4.713,0-8.533-3.821-8.533-8.533V16.067C169.667,11.354,173.487,7.533,178.2,7.533z"/>
		<path style="fill:#FFEB3A;" d="M178.2,7.533h128c4.713,0,8.533,3.821,8.533,8.533V101.4c0,4.713-3.82,8.533-8.533,8.533h-128
			c-4.713,0-8.533-3.821-8.533-8.533V16.067C169.667,11.354,173.487,7.533,178.2,7.533z"/>
		<path style="fill:#00838F;" d="M109.933,255c-0.022,28.268-22.932,51.178-51.2,51.2c-4.317-0.013-8.616-0.558-12.8-1.621
			c-22.602-5.818-38.4-26.197-38.4-49.536s15.798-43.718,38.4-49.536c4.172-1.134,8.477-1.708,12.8-1.707
			C87.001,203.822,109.911,226.732,109.933,255z"/>
		<path style="fill:#00BCD4;" d="M84.333,255c-0.054,23.33-15.825,43.692-38.4,49.579c-22.602-5.818-38.4-26.197-38.4-49.536
			s15.798-43.718,38.4-49.536C68.513,211.331,84.302,231.681,84.333,255z"/>
		<path style="fill:#AD1457;" d="M502.467,255c-0.022,28.268-22.932,51.178-51.2,51.2c-4.317-0.013-8.616-0.558-12.8-1.621
			c-22.602-5.818-38.4-26.197-38.4-49.536s15.798-43.718,38.4-49.536c4.172-1.134,8.477-1.708,12.8-1.707
			C479.534,203.822,502.444,226.732,502.467,255z"/>
		<path style="fill:#E91E63;" d="M476.867,255c-0.054,23.33-15.825,43.692-38.4,49.579c-22.602-5.818-38.4-26.197-38.4-49.536
			s15.798-43.718,38.4-49.536C461.047,211.331,476.836,231.681,476.867,255z"/>
		<path style="fill:#4CAF50;" d="M209.794,445.237l39.131-39.131c3.332-3.332,8.736-3.332,12.068,0l39.131,39.131
			c3.332,3.332,3.332,8.736,0,12.068l-39.131,39.131c-3.332,3.332-8.736,3.332-12.068,0l-39.131-39.131
			C206.462,453.973,206.462,448.57,209.794,445.237z"/>
		<polygon style="fill:#FF9801;" points="320.109,237.763 212.419,345.368 194.584,327.533 182.467,315.416 164.632,297.581 
			272.237,189.891 		"/>
		<path style="fill:#E91E63;" d="M344.034,213.809l-47.847-47.847l5.822-5.821c9.997-9.997,26.207-9.997,36.204,0l11.643,11.643
			c9.997,9.997,9.997,26.207,0,36.204L344.034,213.809z"/>
	</g>
	<g>
		<path d="M51.2,315.052v39.815l-23.1,23.1c-3.281,3.341-3.256,8.701,0.054,12.012s8.671,3.335,12.012,0.054L51.2,379v47.667
			c0.02,18.843,15.29,34.113,34.133,34.133h115.933l48.7,48.7c1.6,1.601,3.77,2.5,6.033,2.5c2.263,0,4.433-0.899,6.033-2.5
			l48.7-48.7h115.933c18.843-0.02,34.113-15.29,34.133-34.133v-39.133l23.1-23.1c3.296-3.338,3.28-8.711-0.038-12.029
			c-3.317-3.317-8.69-3.334-12.029-0.038L460.8,363.4v-48.349C490.18,310.846,512,285.68,512,256c0-29.68-21.819-54.846-51.2-59.052
			v-39.815l23.1-23.1c2.178-2.151,3.037-5.304,2.251-8.262c-0.786-2.958-3.097-5.269-6.055-6.055
			c-2.958-0.786-6.111,0.073-8.262,2.251L460.8,133V85.333C460.78,66.49,445.51,51.22,426.667,51.2h-76.8V17.067
			C349.856,7.646,342.221,0.011,332.8,0H179.2c-9.421,0.011-17.056,7.645-17.067,17.067V51.2h-76.8
			C66.49,51.22,51.22,66.49,51.2,85.333v39.133l-23.1,23.1c-3.281,3.341-3.256,8.701,0.054,12.012
			c3.311,3.311,8.671,3.335,12.012,0.054L51.2,148.6v48.349C21.82,201.155,0,226.32,0,256C0,285.68,21.82,310.846,51.2,315.052z
			 M256,491.4l-39.133-39.133L256,413.133l39.133,39.133L256,491.4z M494.933,256c0,23.564-19.103,42.667-42.667,42.667
			c-23.564,0-42.667-19.103-42.667-42.667s19.103-42.667,42.667-42.667C475.819,213.361,494.906,232.447,494.933,256z M179.2,17.067
			h153.6l0.004,42.646l-0.004,0.021l0.004,0.021l0.004,42.646H179.2V17.067z M85.333,68.267h76.8V102.4
			c0.011,9.421,7.645,17.056,17.067,17.067h153.6c9.421-0.011,17.056-7.645,17.067-17.067V68.267h76.8
			c9.421,0.011,17.056,7.645,17.067,17.067V133L432.7,121.966c-3.338-3.296-8.711-3.279-12.029,0.038s-3.334,8.691-0.038,12.029
			l23.1,23.1v39.815c-29.38,4.206-51.2,29.372-51.2,59.052c0,29.68,21.819,54.845,51.2,59.052V363.4L432.7,352.366
			c-3.338-3.296-8.711-3.279-12.029,0.038s-3.334,8.691-0.038,12.029l23.1,23.1v39.133c-0.011,9.421-7.645,17.056-17.067,17.067
			H310.733l-48.7-48.7c-1.6-1.601-3.77-2.5-6.033-2.5c-2.263,0-4.434,0.899-6.033,2.5l-48.7,48.7H85.333
			c-9.421-0.011-17.056-7.645-17.067-17.067V379L79.3,390.034c2.151,2.178,5.304,3.037,8.262,2.251
			c2.958-0.786,5.269-3.097,6.055-6.055s-0.073-6.111-2.251-8.262l-23.1-23.1v-39.815c29.38-4.206,51.2-29.372,51.2-59.052
			c0-29.68-21.82-54.846-51.2-59.052V148.6L79.3,159.634c3.338,3.296,8.711,3.279,12.029-0.038
			c3.317-3.317,3.334-8.691,0.038-12.029l-23.1-23.1V85.333C68.277,75.912,75.912,68.277,85.333,68.267z M59.733,213.333
			c23.564,0,42.667,19.103,42.667,42.667s-19.103,42.667-42.667,42.667S17.067,279.564,17.067,256
			C17.094,232.447,36.181,213.361,59.733,213.333z"/>
		<path d="M153.65,366.888c0.563,0,1.124-0.056,1.675-0.167l59.808-11.963c0.262-0.053,0.458-0.222,0.71-0.297
			c1.093-0.341,2.111-0.886,3-1.606c0.204-0.169,0.456-0.239,0.648-0.43l107.65-107.654l23.913-23.912l0.013-0.009l5.825-5.825
			c13.308-13.34,13.308-34.935,0-48.275l-11.65-11.637c-6.4-6.402-15.08-9.999-24.132-10c-9.052-0.001-17.734,3.595-24.134,9.996
			l-5.825,5.821l-0.009,0.012l-23.908,23.917L159.575,292.513c-0.176,0.176-0.248,0.419-0.406,0.608
			c-0.725,0.879-1.271,1.891-1.606,2.979c-0.121,0.251-0.228,0.508-0.321,0.771l-11.958,59.808
			c-0.502,2.507,0.147,5.107,1.768,7.084C148.672,365.74,151.093,366.887,153.65,366.888z M170.849,315.852l25.301,25.299
			l-31.625,6.324L170.849,315.852z M213.458,334.325l-11.859-11.858l95.585-95.589l11.857,11.859L213.458,334.325z M333.175,167.179
			v0.004l11.65,11.637c6.57,6.589,6.663,17.223,0.208,23.925l-35.775-35.775C316.033,160.709,326.511,160.8,333.175,167.179z
			 M297.183,179.038l32.18,32.172l3.603,3.603l-11.858,11.857l-17.887-17.889l-17.888-17.89L297.183,179.038z M273.267,202.959
			l11.852,11.853l-95.587,95.589l-11.856-11.855L273.267,202.959z"/>
	</g>
</g>
<g>
</g>
<g>
</g>
<g>
</g>
<g>
</g>
<g>
</g>
<g>
</g>
<g>
</g>
<g>
</g>
<g>
</g>
<g>
</g>
<g>
</g>
<g>
</g>
<g>
</g>
<g>
</g>
<g>
</g>
</svg>
