<?xml version="1.0" encoding="iso-8859-1"?>
<!-- Generator: Adobe Illustrator 19.0.0, SVG Export Plug-In . SVG Version: 6.00 Build 0)  -->
<svg version="1.1" id="Capa_1" xmlns="http://www.w3.org/2000/svg" xmlns:xlink="http://www.w3.org/1999/xlink" x="0px" y="0px"
	 viewBox="0 0 496.485 496.485" style="enable-background:new 0 0 496.485 496.485;" xml:space="preserve">
<circle style="fill:#2EA2DB;" cx="254.448" cy="136.533" r="136.533"/>
<path style="fill:#F16051;" d="M473.212,414.255h-36.461v74.473h36.461c8.533,0,15.515-6.982,15.515-15.515V429.77
	C488.727,421.236,481.745,414.255,473.212,414.255z"/>
<path style="fill:#193651;" d="M473.212,496.485h-36.461c-4.655,0-7.758-3.103-7.758-7.758v-74.473c0-4.655,3.103-7.758,7.758-7.758
	h36.461c13.188,0,23.273,10.085,23.273,23.273v43.442C496.485,486.4,486.4,496.485,473.212,496.485z M444.509,480.97h28.703
	c4.655,0,7.758-3.103,7.758-7.758V429.77c0-4.655-3.103-7.758-7.758-7.758h-28.703V480.97z"/>
<polygon style="fill:#FDBF5E;" points="79.127,488.727 79.127,414.255 7.758,451.491 "/>
<path style="fill:#193651;" d="M79.127,496.485c-1.552,0-2.327,0-3.879-0.776l-71.37-37.236C1.552,456.921,0,454.594,0,451.491
	c0-3.103,1.552-5.43,3.879-6.982l71.37-37.236c2.327-1.552,5.43-0.776,7.758,0c2.327,1.552,3.879,3.879,3.879,6.982v74.473
	c0,2.327-1.552,5.43-3.879,6.982C82.23,496.485,80.679,496.485,79.127,496.485z M24.824,451.491l47.321,24.824v-49.648
	L24.824,451.491z"/>
<rect x="79.127" y="414.255" style="fill:#E1E6E9;" width="356.849" height="74.473"/>
<path style="fill:#193651;" d="M436.752,496.485H79.903c-4.655,0-7.758-3.103-7.758-7.758v-74.473c0-4.655,3.103-7.758,7.758-7.758
	h356.849c4.655,0,7.758,3.103,7.758,7.758v74.473C444.509,493.382,440.63,496.485,436.752,496.485z M86.885,480.97h341.333v-58.958
	H86.885C86.885,422.012,86.885,480.97,86.885,480.97z"/>
<rect x="102.4" y="439.079" style="fill:#FFFFFF;" width="310.303" height="24.824"/>
<rect x="79.127" y="358.4" style="fill:#2EA2DB;" width="271.515" height="55.079"/>
<path style="fill:#193651;" d="M350.642,422.012H79.127c-4.655,0-7.758-3.103-7.758-7.758v-55.079c0-4.655,3.103-7.758,7.758-7.758
	h271.515c4.655,0,7.758,3.103,7.758,7.758v55.079C358.4,418.133,355.297,422.012,350.642,422.012z M86.885,406.497h256v-39.564h-256
	C86.885,366.933,86.885,406.497,86.885,406.497z"/>
<g>
	<rect x="112.485" y="366.933" style="fill:#FFFFFF;" width="5.43" height="39.564"/>
	<rect x="124.897" y="366.933" style="fill:#FFFFFF;" width="13.188" height="39.564"/>
	<rect x="312.475" y="366.235" style="fill:#FFFFFF;" width="5.43" height="39.564"/>
	<rect x="292.461" y="366.235" style="fill:#FFFFFF;" width="13.188" height="39.564"/>
</g>
<rect x="79.127" y="303.321" style="fill:#F16051;" width="271.515" height="55.079"/>
<path style="fill:#193651;" d="M350.642,366.158H79.127c-4.655,0-7.758-3.103-7.758-7.758v-55.079c0-4.655,3.103-7.758,7.758-7.758
	h271.515c4.655,0,7.758,3.103,7.758,7.758V358.4C358.4,363.055,355.297,366.158,350.642,366.158z M86.885,350.642h256v-39.564h-256
	C86.885,311.079,86.885,350.642,86.885,350.642z"/>
<g>
	<rect x="112.485" y="311.079" style="fill:#FFFFFF;" width="5.43" height="39.564"/>
	<rect x="124.897" y="311.079" style="fill:#FFFFFF;" width="13.188" height="39.564"/>
	<rect x="312.475" y="311.699" style="fill:#FFFFFF;" width="5.43" height="39.564"/>
	<rect x="292.461" y="311.699" style="fill:#FFFFFF;" width="13.188" height="39.564"/>
	<path style="fill:#FFFFFF;" d="M465.455,378.57h-91.539c-13.188,0-23.273,10.085-23.273,23.273v11.636h138.085v-11.636
		C488.727,389.43,478.642,378.57,465.455,378.57z"/>
</g>
<g>
	<path style="fill:#193651;" d="M465.455,370.812h-91.539c-17.067,0-31.03,13.964-31.03,31.03v11.636
		c0,4.655,3.103,7.758,7.758,7.758h138.085c4.655,0,7.758-3.103,7.758-7.758v-11.636
		C496.485,384.776,482.521,370.812,465.455,370.812z M480.97,406.497H358.4v-3.879c0-8.533,6.982-15.515,15.515-15.515h91.539
		c8.533,0,15.515,6.982,15.515,15.515V406.497z"/>
	<path style="fill:#193651;" d="M407.273,386.327c-3.879-0.776-6.206-5.43-5.43-9.309l42.667-158.255L283.927,56.63
		c-3.103-3.103-3.103-7.758,0-10.861c3.103-3.103,7.758-3.103,10.861,0l163.685,165.236c2.327,2.327,2.327,4.655,2.327,7.758
		l-44.218,162.133C415.03,384.776,411.152,387.103,407.273,386.327z"/>
	<rect x="150.497" y="152.824" style="fill:#193651;" width="15.515" height="13.964"/>
</g>
<rect x="160.568" y="189.128" transform="matrix(-0.866 0.5 -0.5 -0.866 412.1556 281.7804)" style="fill:#193651;" width="15.515" height="13.963"/>
<g>
	
		<rect x="186.721" y="216.002" transform="matrix(-0.5002 0.8659 -0.8659 -0.5002 484.8399 166.1205)" style="fill:#193651;" width="15.515" height="13.964"/>
	<rect x="224.194" y="224.97" style="fill:#193651;" width="13.964" height="15.515"/>
</g>
<polygon style="fill:#FDBF5E;" points="323.491,40.339 290.133,74.473 173.77,110.933 280.048,217.212 317.285,100.848 
	350.642,67.491 "/>
<path style="fill:#193651;" d="M280.048,224.97c-2.327,0-3.879-0.776-5.43-2.327L168.339,116.364
	c-1.552-1.552-2.327-4.655-2.327-6.982c0.776-2.327,2.327-4.655,5.43-5.43l114.036-35.685l32.582-33.358
	c3.103-3.103,7.758-3.103,10.861,0l27.152,27.152c1.552,1.552,2.327,3.103,2.327,5.43c0,2.327-0.776,3.879-2.327,5.43
	l-32.582,32.582l-35.685,114.036c-0.776,2.327-3.103,4.655-5.43,5.43C281.6,224.97,280.824,224.97,280.048,224.97z M188.509,114.036
	l88.436,88.436l32.582-103.952c0-1.552,0.776-2.327,1.552-3.103l27.927-27.927l-15.515-15.515l-27.927,27.927
	c-0.776,0.776-2.327,1.552-3.103,1.552L188.509,114.036z"/>
<g>
	<polygon style="fill:#FFFFFF;" points="269.964,107.055 218.764,123.345 267.636,172.218 283.927,121.018 	"/>
	<path style="fill:#FFFFFF;" d="M200.921,138.861c-13.964,13.964-13.964,37.236,0,51.2c13.964,13.964,37.236,13.964,51.2,0
		L200.921,138.861z"/>
</g>
<path style="fill:#193651;" d="M226.521,208.679c-11.636,0-22.497-4.655-31.03-13.188s-13.188-19.394-13.188-31.03
	s4.655-22.497,13.188-31.03c3.103-3.103,7.758-3.103,10.861,0l51.2,51.2c1.552,1.552,2.327,3.103,2.327,5.43
	c0,2.327-0.776,3.879-2.327,5.43C249.018,204.024,238.158,208.679,226.521,208.679z M201.697,150.497
	c-2.327,3.879-3.879,9.309-3.879,13.964c0,7.758,3.103,14.739,8.533,20.17c9.309,8.533,23.273,10.861,34.133,4.655L201.697,150.497z
	"/>
<circle style="fill:#FFFFFF;" cx="453.042" cy="216.436" r="22.497"/>
<path style="fill:#193651;" d="M453.042,246.691c-16.291,0-30.255-13.188-30.255-30.255c0-16.291,13.188-30.255,30.255-30.255
	c16.291,0,30.255,13.188,30.255,30.255C483.297,232.727,469.333,246.691,453.042,246.691z M453.042,201.697
	c-7.758,0-14.739,6.206-14.739,14.739c0,7.758,6.206,14.739,14.739,14.739c7.758,0,14.739-6.206,14.739-14.739
	C467.782,208.679,460.8,201.697,453.042,201.697z"/>
<g>
</g>
<g>
</g>
<g>
</g>
<g>
</g>
<g>
</g>
<g>
</g>
<g>
</g>
<g>
</g>
<g>
</g>
<g>
</g>
<g>
</g>
<g>
</g>
<g>
</g>
<g>
</g>
<g>
</g>
</svg>
